<svg width="92" height="92" viewBox="0 0 92 92" fill="none" xmlns="http://www.w3.org/2000/svg">
<circle cx="46" cy="46" r="46" fill="#FA7107"/>
<path fill-rule="evenodd" clip-rule="evenodd" d="M45.6471 36.369V30.7889C36.7159 30.7747 28.7405 37.1901 27.0561 46.3685C25.3897 55.4375 30.3646 64.3865 38.8856 67.6496C41.3234 68.5834 42.5477 71.3295 41.6241 73.7922C40.8031 75.979 38.5563 77.1998 36.359 76.7894C36.0831 76.7396 35.8068 76.6619 35.538 76.5592C22.7475 71.669 15.2774 58.2409 17.7796 44.6393C20.3057 30.8784 32.2624 21.2927 45.6478 21.3098V16.6853C45.6478 14.4666 48.4396 13.3239 50.1309 14.8558L61.0077 24.6962C62.1081 25.694 62.1081 27.3641 61.0077 28.3619L50.1309 38.2026C48.4396 39.731 45.6478 38.5918 45.6478 36.3696M51.8859 67.8016C51.1852 68.0566 50.4633 68.2685 49.7342 68.4316C47.1904 69.0011 45.5803 71.5455 46.1432 74.1144C46.5639 76.039 48.0856 77.4296 49.8902 77.7695C50.4953 77.8792 51.1319 77.8757 51.7691 77.734C52.8802 77.4829 53.9736 77.1644 55.042 76.7823C57.4943 75.9013 58.7823 73.173 57.9115 70.6961C57.0376 68.2156 54.3342 66.9206 51.8859 67.8016M61.2663 60.4736C61.0646 60.778 60.8558 61.0752 60.6328 61.3653C59.044 63.4494 59.4262 66.4394 61.4924 68.0459C62.1082 68.52 62.7946 68.8207 63.5094 68.9518C65.1937 69.2663 66.9911 68.6403 68.113 67.1716C68.4489 66.726 68.7781 66.2662 69.0931 65.7952C70.5472 63.612 69.9776 60.654 67.8194 59.182C65.6571 57.7203 62.724 58.2903 61.2663 60.4735M69.3197 45.8596C66.7155 45.7885 64.5429 47.9579 64.4753 50.5903C64.4118 52.9574 66.0747 54.9318 68.3113 55.3494C68.5516 55.3956 68.8031 55.4236 69.0541 55.4272C71.6548 55.5054 73.8274 53.3928 73.9092 50.7636C73.9092 50.7565 73.9127 50.6609 73.9127 50.6538C73.9833 48.0214 71.9063 45.9054 69.3198 45.8596" fill="white"/>
</svg>
