<svg width="205" height="106" viewBox="0 0 205 106" fill="none" xmlns="http://www.w3.org/2000/svg">
<path d="M82.2917 63.1662H78.3517V75.368H76.7521V63.1662H72.8213V61.7238H82.2917V63.1662ZM90.1533 70.8849H83.2663C83.231 71.8031 83.5438 72.7007 84.1421 73.3981C84.442 73.6994 84.8021 73.934 85.1989 74.0865C85.5957 74.239 86.0202 74.3059 86.4447 74.283C87.5484 74.2809 88.6175 73.8976 89.4711 73.198V74.6637C88.4674 75.3281 87.2779 75.6549 86.0757 75.5967C85.4698 75.6283 84.8644 75.5256 84.3029 75.296C83.7413 75.0664 83.2373 74.7156 82.827 74.2687C81.9866 73.2119 81.5697 71.8801 81.6575 70.5328C81.5994 69.1788 82.0594 67.8535 82.944 66.8268C83.3405 66.3683 83.833 66.0026 84.3865 65.7556C84.94 65.5086 85.5411 65.3863 86.1471 65.3974C86.7021 65.3656 87.2569 65.4604 87.7698 65.6747C88.2826 65.8891 88.74 66.2172 89.1073 66.6344C89.8567 67.6173 90.2284 68.8365 90.1546 70.0702L90.1533 70.8849ZM88.555 69.5621C88.5963 68.8058 88.3658 68.0596 87.9053 67.4583C87.684 67.2063 87.4085 67.0077 87.0995 66.8774C86.7905 66.7471 86.456 66.6885 86.1212 66.7059C85.7709 66.7001 85.4232 66.7673 85.1003 66.9034C84.7775 67.0394 84.4865 67.2412 84.246 67.496C83.7134 68.0628 83.3795 68.7876 83.2949 69.5608L88.555 69.5621ZM99.1559 74.921C98.3468 75.3876 97.4244 75.6214 96.4908 75.5967C95.8661 75.6214 95.2434 75.5132 94.6637 75.2794C94.084 75.0455 93.5605 74.6913 93.1278 74.2401C92.2541 73.2827 91.7941 72.0188 91.8478 70.7238C91.7789 69.3032 92.2729 67.9127 93.2226 66.854C93.6982 66.364 94.2724 65.9804 94.9072 65.7286C95.5421 65.4768 96.2231 65.3626 96.9053 65.3935C97.6866 65.3773 98.4614 65.54 99.1702 65.8691V67.4674C98.4956 66.9756 97.683 66.7092 96.8481 66.7059C96.386 66.6928 95.9266 66.782 95.503 66.9671C95.0793 67.1522 94.7018 67.4287 94.3973 67.7767C93.7351 68.5597 93.3935 69.5642 93.441 70.5887C93.386 71.5712 93.7076 72.5377 94.3402 73.2915C94.6463 73.622 95.0208 73.8817 95.4375 74.0527C95.8543 74.2237 96.3032 74.3019 96.7532 74.2817C97.6249 74.2745 98.4692 73.9763 99.152 73.4345L99.1559 74.921ZM109.606 75.368H108.047V69.7531C108.047 67.7225 107.292 66.7072 105.782 66.7072C105.416 66.7024 105.054 66.7789 104.722 66.931C104.39 67.0831 104.095 67.3072 103.86 67.5869C103.325 68.2157 103.046 69.023 103.08 69.848V75.368H101.521V60.9442H103.08V67.2452H103.118C103.43 66.6733 103.893 66.1984 104.458 65.8726C105.022 65.5469 105.665 65.3829 106.316 65.3987C108.511 65.3987 109.609 66.7215 109.609 69.3672L109.606 75.368ZM120.641 75.368H119.082V69.8103C119.082 67.7416 118.327 66.7072 116.817 66.7072C116.449 66.6995 116.084 66.7745 115.749 66.9268C115.413 67.079 115.117 67.3046 114.881 67.5869C114.358 68.2067 114.085 68.9988 114.114 69.809V75.368H112.555V65.6222H114.114V67.24H114.144C114.453 66.666 114.916 66.1894 115.481 65.8633C116.046 65.5373 116.69 65.3746 117.342 65.3935C117.801 65.3656 118.261 65.4444 118.686 65.6236C119.11 65.8028 119.487 66.0776 119.787 66.4265C120.408 67.2944 120.707 68.3509 120.635 69.4153L120.641 75.368ZM127.658 75.5967C127.018 75.6271 126.379 75.521 125.783 75.2855C125.187 75.0501 124.648 74.6906 124.202 74.231C123.312 73.2405 122.849 71.9392 122.912 70.6095C122.871 69.9131 122.968 69.2155 123.198 68.557C123.429 67.8986 123.787 67.2923 124.254 66.7735C124.73 66.3049 125.298 65.9403 125.922 65.7028C126.546 65.4652 127.213 65.3599 127.88 65.3935C128.511 65.3583 129.141 65.46 129.728 65.6918C130.316 65.9235 130.846 66.2797 131.282 66.7358C132.148 67.776 132.585 69.1066 132.505 70.4574C132.573 71.829 132.1 73.1726 131.187 74.1985C130.732 74.6684 130.181 75.036 129.573 75.277C128.965 75.5181 128.312 75.6271 127.658 75.5967V75.5967ZM127.772 66.7072C127.324 66.6869 126.877 66.7684 126.465 66.9455C126.053 67.1226 125.687 67.3908 125.393 67.7299C124.769 68.5336 124.458 69.5365 124.517 70.5523C124.462 71.5404 124.778 72.5134 125.402 73.2811C125.699 73.6126 126.065 73.8741 126.475 74.0469C126.885 74.2197 127.328 74.2994 127.772 74.2804C128.209 74.3062 128.647 74.2313 129.05 74.0614C129.454 73.8915 129.813 73.6312 130.1 73.3006C130.687 72.4951 130.972 71.5091 130.907 70.5146C130.971 69.5108 130.683 68.516 130.093 67.7013C129.809 67.367 129.45 67.1032 129.046 66.9308C128.643 66.7583 128.204 66.6818 127.766 66.7072H127.772ZM136.561 75.368H135.001V60.9442H136.561V75.368ZM143.793 75.5967C143.154 75.6261 142.516 75.5196 141.922 75.2842C141.327 75.0487 140.789 74.6898 140.343 74.231C139.454 73.2405 138.991 71.9392 139.054 70.6095C139.012 69.9133 139.109 69.2158 139.339 68.5573C139.569 67.8989 139.927 67.2925 140.393 66.7735C140.869 66.3049 141.437 65.9403 142.061 65.7028C142.685 65.4652 143.352 65.3599 144.019 65.3935C144.65 65.3583 145.28 65.46 145.868 65.6918C146.455 65.9235 146.985 66.2797 147.421 66.7358C148.287 67.776 148.724 69.1066 148.644 70.4574C148.713 71.8286 148.241 73.1722 147.329 74.1985C146.873 74.6692 146.321 75.0373 145.712 75.2784C145.102 75.5195 144.448 75.628 143.793 75.5967V75.5967ZM143.901 66.7072C143.453 66.6869 143.006 66.7684 142.594 66.9455C142.182 67.1226 141.815 67.3908 141.522 67.7299C140.9 68.5345 140.591 69.5373 140.653 70.5523C140.597 71.5404 140.913 72.5134 141.537 73.2811C141.833 73.6122 142.198 73.8737 142.607 74.0469C143.016 74.2201 143.458 74.3007 143.901 74.283C144.34 74.3106 144.78 74.2366 145.185 74.0667C145.591 73.8967 145.952 73.6355 146.24 73.3032C146.83 72.4979 147.118 71.5108 147.054 70.5146C147.118 69.5108 146.83 68.516 146.24 67.7013C145.954 67.3654 145.594 67.1006 145.188 66.9281C144.782 66.7555 144.341 66.6799 143.901 66.7072ZM159.459 74.5884C159.459 78.1671 157.746 79.9564 154.32 79.9564C153.227 79.98 152.144 79.7435 151.16 79.2664V77.707C152.111 78.2727 153.191 78.5858 154.297 78.6167C156.696 78.6167 157.895 77.3415 157.895 74.7911V73.7255H157.857C157.528 74.3173 157.04 74.8057 156.449 75.1361C155.858 75.4666 155.187 75.6261 154.51 75.5967C153.956 75.6161 153.404 75.5092 152.897 75.2841C152.39 75.059 151.941 74.7215 151.584 74.2973C150.803 73.3075 150.41 72.0681 150.475 70.8096C150.399 69.3937 150.822 67.996 151.669 66.8592C152.062 66.377 152.563 65.9933 153.13 65.7388C153.698 65.4843 154.317 65.366 154.939 65.3935C155.524 65.3618 156.107 65.4926 156.622 65.7715C157.138 66.0503 157.566 66.4664 157.86 66.9736H157.898V65.6222H159.457L159.459 74.5884ZM157.9 70.9616V69.5205C157.907 69.1539 157.842 68.7895 157.708 68.4482C157.575 68.1068 157.375 67.7951 157.12 67.5311C156.872 67.2625 156.569 67.0498 156.232 66.9071C155.894 66.7644 155.531 66.6949 155.165 66.7033C154.731 66.6841 154.298 66.7697 153.904 66.9526C153.51 67.1356 153.165 67.4106 152.9 67.7546C152.306 68.6176 152.018 69.6546 152.081 70.7004C152.033 71.6308 152.308 72.5492 152.861 73.2993C153.106 73.6141 153.422 73.8665 153.784 74.0361C154.145 74.2056 154.541 74.2876 154.94 74.2752C155.343 74.2879 155.744 74.2108 156.113 74.0494C156.483 73.8881 156.812 73.6465 157.076 73.3422C157.638 72.6792 157.931 71.8299 157.898 70.9616H157.9ZM163.419 63.1532C163.287 63.1556 163.156 63.1315 163.033 63.0824C162.911 63.0333 162.799 62.9602 162.706 62.8673C162.609 62.774 162.532 62.6613 162.481 62.5367C162.431 62.412 162.406 62.2781 162.411 62.1435C162.407 62.0085 162.431 61.8741 162.482 61.7489C162.533 61.6236 162.609 61.5102 162.706 61.4159C162.799 61.3219 162.91 61.2479 163.033 61.1981C163.155 61.1483 163.287 61.1238 163.419 61.1261C163.553 61.1234 163.687 61.1477 163.812 61.1974C163.937 61.2472 164.051 61.3215 164.147 61.4159C164.245 61.5095 164.322 61.6226 164.374 61.7479C164.425 61.8732 164.45 62.008 164.447 62.1435C164.449 62.2767 164.423 62.4089 164.371 62.5317C164.32 62.6545 164.243 62.7652 164.147 62.8569C164.052 62.9529 163.938 63.0287 163.813 63.0796C163.688 63.1305 163.554 63.1556 163.419 63.1532V63.1532ZM164.179 75.368H162.613V65.6222H164.173L164.179 75.368ZM175.171 70.8849H168.284C168.249 71.8031 168.562 72.7007 169.16 73.3981C169.46 73.6994 169.82 73.934 170.217 74.0865C170.613 74.239 171.038 74.3059 171.462 74.283C172.566 74.2809 173.635 73.8976 174.489 73.198V74.6637C173.487 75.327 172.299 75.6538 171.099 75.5967C170.493 75.6283 169.887 75.5256 169.326 75.296C168.764 75.0664 168.26 74.7156 167.85 74.2687C167.006 73.2134 166.585 71.8815 166.67 70.5328C166.612 69.178 167.073 67.8522 167.959 66.8255C168.356 66.367 168.848 66.0013 169.402 65.7543C169.955 65.5073 170.556 65.385 171.162 65.3961C171.717 65.3643 172.272 65.4591 172.785 65.6734C173.298 65.8878 173.755 66.2159 174.122 66.6331C174.872 67.616 175.244 68.8352 175.17 70.0689L175.171 70.8849ZM173.573 69.5621C173.614 68.8058 173.384 68.0596 172.923 67.4583C172.702 67.2063 172.426 67.0077 172.117 66.8774C171.808 66.7471 171.474 66.6885 171.139 66.7059C170.789 66.7001 170.441 66.7673 170.118 66.9034C169.795 67.0394 169.504 67.2412 169.264 67.496C168.731 68.0628 168.397 68.7876 168.313 69.5608L173.573 69.5621ZM176.942 75.0198V73.3409C177.75 73.9546 178.736 74.2857 179.75 74.283C181.121 74.283 181.806 73.826 181.806 72.9121C181.814 72.6792 181.753 72.4492 181.631 72.2507C181.505 72.0611 181.343 71.8978 181.155 71.7699C180.935 71.6194 180.699 71.4935 180.451 71.3943C180.181 71.2834 179.891 71.1678 179.58 71.0474C179.192 70.8954 178.812 70.7219 178.443 70.5276C178.143 70.3723 177.867 70.1735 177.624 69.9376C177.41 69.7253 177.241 69.4709 177.129 69.1905C177.012 68.8773 176.956 68.5448 176.963 68.2107C176.955 67.785 177.064 67.3652 177.278 66.997C177.488 66.6437 177.774 66.3415 178.116 66.1121C178.481 65.8668 178.884 65.6849 179.31 65.5741C179.762 65.453 180.227 65.3923 180.695 65.3935C181.472 65.3803 182.244 65.5295 182.96 65.8314V67.4115C182.225 66.9375 181.366 66.6924 180.491 66.7072C180.224 66.704 179.958 66.7376 179.701 66.8073C179.485 66.8652 179.28 66.9601 179.097 67.0879C178.936 67.2008 178.802 67.3488 178.707 67.5207C178.614 67.6913 178.567 67.8827 178.569 68.0768C178.562 68.2976 178.609 68.5168 178.707 68.7149C178.806 68.8951 178.944 69.0513 179.111 69.1723C179.312 69.3184 179.53 69.4397 179.761 69.5335C180.015 69.6418 180.304 69.7592 180.628 69.8857C181.023 70.035 181.411 70.205 181.789 70.395C182.106 70.552 182.401 70.7503 182.665 70.985C182.9 71.1963 183.09 71.4537 183.221 71.7413C183.358 72.063 183.425 72.4104 183.416 72.76C183.427 73.2002 183.317 73.6349 183.098 74.0166C182.885 74.3726 182.593 74.6752 182.245 74.9015C181.869 75.144 181.453 75.3199 181.017 75.4213C180.541 75.5372 180.051 75.5948 179.561 75.5928C178.654 75.6183 177.755 75.4201 176.942 75.0159V75.0198Z" fill="#026197"/>
<path d="M111.933 42.8377V50.4537C111.388 50.5519 110.835 50.6032 110.281 50.6071C108.919 50.6458 107.563 50.4078 106.295 49.9075C105.028 49.4072 103.874 48.655 102.906 47.6963C101.938 46.7489 101.176 45.6116 100.668 44.3558C100.16 43.0999 99.9172 41.7527 99.9547 40.3986C99.9294 39.0524 100.181 37.7154 100.693 36.4704C101.206 35.2253 101.969 34.0988 102.934 33.1607C103.876 32.1976 105.005 31.4374 106.252 30.9265C107.498 30.4157 108.836 30.1651 110.183 30.1901C111.557 30.1158 112.933 30.3245 114.224 30.8033C115.514 31.2821 116.693 32.0207 117.687 32.9735C118.631 33.9924 119.36 35.1907 119.831 36.497C120.302 37.8034 120.506 39.1912 120.43 40.5779V50.1938H113.074V41.1068C113.12 40.2174 112.852 39.3402 112.316 38.6287C112.072 38.327 111.761 38.0863 111.408 37.9259C111.054 37.7655 110.668 37.6898 110.28 37.7048C109.906 37.7014 109.534 37.7746 109.189 37.9201C108.844 38.0656 108.533 38.2802 108.274 38.5508C108.003 38.8097 107.789 39.1213 107.643 39.4664C107.498 39.8114 107.424 40.1827 107.428 40.5571C107.415 40.9259 107.476 41.2934 107.608 41.6381C107.739 41.9828 107.939 42.2974 108.195 42.5635C108.447 42.823 108.75 43.027 109.086 43.1624C109.422 43.2978 109.782 43.3615 110.144 43.3496C110.777 43.3521 111.397 43.1745 111.933 42.8377V42.8377ZM132.074 23.3459V50.1938H124.718V23.3446L132.074 23.3459ZM143.306 57.4513H135.949V41.0873C135.833 38.4381 136.67 35.8349 138.309 33.7506C139.249 32.6348 140.429 31.7463 141.761 31.1517C143.105 30.5206 144.572 30.1915 146.058 30.1875C147.426 30.156 148.786 30.4012 150.057 30.9083C151.327 31.4154 152.483 32.174 153.453 33.1386C154.429 34.0711 155.201 35.1963 155.719 36.4427C156.237 37.6891 156.491 39.0295 156.464 40.3791C156.479 41.7189 156.222 43.0477 155.708 44.2852C155.194 45.5226 154.435 46.6429 153.475 47.5781C152.567 48.5436 151.47 49.3111 150.251 49.8324C149.033 50.3536 147.72 50.6174 146.394 50.6071C145.948 50.6071 145.292 50.5612 144.427 50.4693V42.366C144.928 42.8111 145.568 43.0683 146.237 43.0937C146.604 43.0975 146.968 43.0241 147.305 42.8784C147.643 42.7327 147.945 42.5178 148.194 42.2477C148.457 41.9845 148.665 41.6715 148.805 41.3269C148.945 40.9824 149.015 40.6133 149.01 40.2414C149.015 39.8711 148.943 39.5038 148.797 39.1633C148.651 38.8229 148.436 38.5168 148.164 38.2649C147.898 38.0008 147.582 37.7925 147.234 37.6524C146.886 37.5122 146.513 37.443 146.138 37.4488C144.25 37.4488 143.306 38.7535 143.306 41.3628V57.4513ZM167.047 30.5826V50.1938H159.69V30.5839L167.047 30.5826ZM163.389 21.8295C163.868 21.8239 164.344 21.9142 164.788 22.0949C165.232 22.2757 165.635 22.5433 165.975 22.882C166.321 23.1973 166.596 23.5817 166.784 24.0104C166.973 24.439 167.068 24.9024 167.066 25.3705C167.081 25.8394 166.997 26.3062 166.819 26.7402C166.641 27.1743 166.373 27.5657 166.033 27.8888C165.678 28.2188 165.262 28.4756 164.808 28.6444C164.354 28.8132 163.871 28.8907 163.387 28.8725C162.903 28.8907 162.42 28.8132 161.966 28.6444C161.512 28.4756 161.096 28.2188 160.742 27.8888C160.403 27.5658 160.136 27.1748 159.958 26.7415C159.781 26.3082 159.697 25.8423 159.712 25.3744C159.71 24.9063 159.806 24.4429 159.994 24.0142C160.182 23.5856 160.458 23.2012 160.804 22.8859C161.143 22.5468 161.546 22.2789 161.99 22.0977C162.434 21.9165 162.909 21.8257 163.389 21.8308V21.8295ZM177.924 23.3446V30.858H181.229V38.6287H177.924C177.812 39.7555 178.072 40.888 178.662 41.854C179.022 42.1887 179.45 42.4413 179.917 42.5941C180.384 42.7469 180.879 42.7963 181.367 42.7389V50.4693C180.986 50.4823 180.704 50.4888 180.521 50.4888C178.879 50.4946 177.261 50.0961 175.81 49.3284C174.38 48.5951 173.159 47.5125 172.26 46.1811C171.044 44.1552 170.456 41.814 170.571 39.4539V23.3407L177.924 23.3446ZM195.745 42.8364V50.4537C195.2 50.5532 194.647 50.6058 194.093 50.611C192.731 50.6497 191.375 50.4117 190.107 49.9114C188.839 49.4111 187.686 48.6589 186.718 47.7002C185.749 46.7528 184.987 45.6155 184.48 44.3597C183.972 43.1038 183.729 41.7566 183.767 40.4025C183.741 39.0563 183.993 37.7193 184.505 36.4743C185.018 35.2292 185.78 34.1027 186.746 33.1646C187.688 32.2015 188.817 31.4413 190.063 30.9304C191.31 30.4196 192.648 30.169 193.995 30.194C195.369 30.1197 196.745 30.3284 198.035 30.8072C199.326 31.286 200.505 32.0246 201.499 32.9774C202.443 33.9959 203.172 35.1937 203.643 36.4996C204.115 37.8055 204.319 39.1929 204.243 40.5792V50.1938H196.886V41.1068C196.932 40.2174 196.664 39.3402 196.128 38.6287C195.884 38.327 195.573 38.0863 195.219 37.9259C194.866 37.7655 194.48 37.6898 194.092 37.7048C193.718 37.7014 193.346 37.7746 193.001 37.9201C192.656 38.0656 192.345 38.2802 192.086 38.5508C191.815 38.8097 191.6 39.1213 191.455 39.4664C191.309 39.8114 191.236 40.1827 191.24 40.5571C191.227 40.9259 191.288 41.2934 191.419 41.6381C191.551 41.9828 191.751 42.2974 192.006 42.5635C192.259 42.823 192.562 43.027 192.898 43.1624C193.234 43.2978 193.594 43.3615 193.956 43.3496C194.588 43.3521 195.209 43.1745 195.745 42.8377V42.8364Z" fill="#2DA8DF"/>
<path d="M98.9122 23.3446L91.8315 35.5204L98.8719 50.1938H89.9057L83.8243 35.3632L90.7114 23.3446H98.9122ZM83.5891 23.3446V50.1938H75.604V23.3446H83.5891Z" fill="#FA7107"/>
<path d="M0 8.18784L27.2196 45.3664V15.7116H22.5727L0 8.18784Z" fill="#6DCDF1"/>
<path d="M27.6626 15.7116V47.1362L54.8822 31.8664L27.6626 15.7116Z" fill="#016096"/>
<path d="M54.8822 0L27.6626 15.7116L54.8822 31.8664V0Z" fill="#2CA6DF"/>
<path d="M27.6626 47.1362V78.5608L54.8822 62.8492L27.6626 47.1362Z" fill="#026197"/>
<path d="M54.8822 94.4947V62.8492L27.6626 78.5608L54.8822 94.4947Z" fill="#2EA8E0"/>
<path d="M27.2195 47.1362L1.54883 80.3307L8.18773 88.5172H14.1652V96.041L21.9112 106L27.2221 99.1402L27.2195 47.1362Z" fill="#006097"/>
</svg>
