<svg width="92" height="92" viewBox="0 0 92 92" fill="none" xmlns="http://www.w3.org/2000/svg">
<circle cx="46" cy="46" r="46" fill="#D70000"/>
<path d="M13.2434 33.1348V40.1293C13.2434 40.1293 20.4304 40.771 20.3663 47.7655C20.3021 54.76 13.2434 55.2733 13.2434 55.2733V62.0112H78.6324V55.2733C78.6324 55.2733 71.3812 54.6316 71.3812 47.7655C71.3812 40.8993 78.6324 40.1293 78.6324 40.1293V33.1348H13.2434Z" fill="white"/>
<path d="M26.5906 35.4453H25.0505V39.9372H26.5906V35.4453Z" fill="#D70000"/>
<path d="M26.5906 41.9902H25.0505V46.4821H26.5906V41.9902Z" fill="#D70000"/>
<path d="M26.5906 48.5361H25.0505V53.028H26.5906V48.5361Z" fill="#D70000"/>
<path d="M26.5906 55.0811H25.0505V59.5729H26.5906V55.0811Z" fill="#D70000"/>
<path d="M66.8892 35.4453H65.3491V39.9372H66.8892V35.4453Z" fill="#D70000"/>
<path d="M66.8892 41.9902H65.3491V46.4821H66.8892V41.9902Z" fill="#D70000"/>
<path d="M66.8892 48.5361H65.3491V53.028H66.8892V48.5361Z" fill="#D70000"/>
<path d="M66.8892 55.0811H65.3491V59.5729H66.8892V55.0811Z" fill="#D70000"/>
<path d="M37.0448 45.517C36.6259 45.517 36.2768 45.4471 35.9976 45.3075C35.7265 45.1597 35.5089 44.9502 35.3446 44.6792C35.1885 44.4081 35.0653 44.0919 34.975 43.7305C34.9175 43.4841 34.8723 43.2212 34.8394 42.942C34.8148 42.6545 34.7943 42.3547 34.7778 42.0426C34.7696 41.7222 34.7655 41.3937 34.7655 41.0569C34.7655 40.8351 34.7696 40.6175 34.7778 40.4039C34.7861 40.1821 34.7984 39.9686 34.8148 39.7632C34.8394 39.5579 34.8641 39.3608 34.8887 39.1719C34.9216 38.9747 34.9627 38.7899 35.0119 38.6174C35.168 38.0589 35.4144 37.6112 35.7512 37.2745C36.0961 36.9295 36.5808 36.757 37.205 36.757C37.6485 36.757 38.0099 36.8392 38.2892 37.0034C38.5685 37.1677 38.7903 37.3977 38.9545 37.6934C39.1188 37.9809 39.242 38.3258 39.3241 38.7283C39.3899 39.0569 39.4309 39.4224 39.4474 39.8248C39.472 40.2273 39.4843 40.6421 39.4843 41.0692C39.4843 41.4306 39.472 41.7838 39.4474 42.1288C39.4309 42.4656 39.3981 42.7859 39.3488 43.0898C39.2995 43.3937 39.2338 43.6771 39.1517 43.9399C38.9874 44.4163 38.7369 44.7983 38.4001 45.0857C38.0716 45.3732 37.6198 45.517 37.0448 45.517ZM37.1311 44.2233C37.2543 44.2233 37.357 44.1904 37.4391 44.1247C37.5212 44.059 37.5869 43.9564 37.6362 43.8167C37.6937 43.6689 37.7348 43.4923 37.7594 43.2869C37.8005 42.9912 37.8251 42.6422 37.8334 42.2397C37.8416 41.8372 37.8457 41.4347 37.8457 41.0323C37.8457 40.6873 37.8416 40.3546 37.8334 40.0343C37.8334 39.7057 37.8251 39.4224 37.8087 39.1842C37.7759 38.7899 37.7101 38.5024 37.6116 38.3217C37.5212 38.1328 37.3693 38.0384 37.1557 38.0384C36.9422 38.0384 36.782 38.1369 36.6752 38.3341C36.5684 38.5312 36.4986 38.8269 36.4658 39.2211C36.4493 39.3443 36.437 39.484 36.4288 39.64C36.4206 39.7961 36.4165 39.9604 36.4165 40.1329C36.4165 40.3054 36.4165 40.4819 36.4165 40.6626C36.4165 40.8434 36.4165 41.0199 36.4165 41.1924C36.4165 41.6031 36.4165 41.9974 36.4165 42.3752C36.4247 42.753 36.4452 43.0734 36.4781 43.3362C36.5027 43.5333 36.5397 43.7017 36.589 43.8414C36.6465 43.9728 36.7163 44.0713 36.7984 44.1371C36.8888 44.1946 36.9997 44.2233 37.1311 44.2233ZM42.0407 42.868L42.0284 41.6113C42.4226 41.6442 42.7512 41.6319 43.014 41.5744C43.2769 41.5087 43.4822 41.3937 43.6301 41.2294C43.7861 41.0569 43.897 40.8434 43.9627 40.5887C44.0366 40.3259 44.0736 40.022 44.0736 39.677C44.0736 39.217 44.0325 38.8556 43.9504 38.5928C43.8765 38.3217 43.7533 38.1287 43.5808 38.0137C43.4165 37.8987 43.1865 37.8412 42.8908 37.8412C42.7841 37.8412 42.6608 37.8453 42.5212 37.8536C42.3898 37.8618 42.2502 37.8782 42.1023 37.9028C41.9545 37.9193 41.8025 37.9398 41.6464 37.9644L40.9811 36.6831C41.1618 36.6749 41.3425 36.6667 41.5232 36.6585C41.7122 36.642 41.8929 36.6338 42.0654 36.6338C42.2461 36.6256 42.4103 36.6215 42.5582 36.6215C43.2646 36.6215 43.8436 36.7036 44.2954 36.8679C44.7553 37.0322 45.0962 37.332 45.318 37.7673C45.548 38.2026 45.663 38.8269 45.663 39.64C45.663 40.4368 45.511 41.0733 45.2071 41.5497C44.9114 42.0179 44.4884 42.3547 43.9381 42.56C43.396 42.7654 42.7635 42.868 42.0407 42.868ZM41.0181 45.517C41.0263 45.1884 41.0345 44.7777 41.0427 44.2849C41.051 43.7839 41.0551 43.2582 41.0551 42.7079C41.0633 42.1493 41.0674 41.6154 41.0674 41.1062C41.0674 40.5887 41.0592 40.0548 41.0427 39.5045C41.0345 38.946 41.0263 38.4203 41.0181 37.9275C41.0099 37.4264 40.9976 37.0116 40.9811 36.6831L42.6444 36.8063C42.6362 37.0116 42.628 37.2498 42.6198 37.5209C42.6116 37.7837 42.6033 38.0671 42.5951 38.371C42.5951 38.6749 42.5951 38.987 42.5951 39.3074C42.6033 39.6195 42.6075 39.9275 42.6075 40.2314C42.6075 40.5353 42.6075 40.8187 42.6075 41.0815C42.6075 41.2869 42.6075 41.5292 42.6075 41.8085C42.6075 42.0877 42.6075 42.3875 42.6075 42.7079C42.6157 43.02 42.6198 43.3362 42.6198 43.6566C42.628 43.9769 42.6321 44.289 42.6321 44.5929C42.6403 44.8886 42.6485 45.1597 42.6567 45.4061L41.0181 45.517ZM46.7685 45.48C46.7685 45.48 46.7685 45.3979 46.7685 45.2336C46.7767 45.0693 46.7808 44.8434 46.7808 44.556C46.789 44.2603 46.7931 43.9276 46.7931 43.558C46.8013 43.1884 46.8054 42.7941 46.8054 42.3752C46.8137 41.9563 46.8178 41.5374 46.8178 41.1185C46.8178 40.5928 46.8137 40.0754 46.8054 39.5661C46.7972 39.0486 46.7849 38.5846 46.7685 38.1739C46.7603 37.7632 46.7521 37.4347 46.7438 37.1882C46.7356 36.9418 46.7315 36.8186 46.7315 36.8186L48.3948 36.9788C48.3948 36.9788 48.3907 37.0774 48.3825 37.2745C48.3825 37.4634 48.3825 37.7139 48.3825 38.026C48.3825 38.3382 48.3784 38.6831 48.3702 39.061C48.3702 39.4306 48.3661 39.7961 48.3578 40.1575C48.3578 40.5189 48.3578 40.8434 48.3578 41.1308C48.3578 41.4183 48.3578 41.751 48.3578 42.1288C48.3661 42.4984 48.3702 42.8762 48.3702 43.2623C48.3784 43.6401 48.3825 43.9933 48.3825 44.3219C48.3907 44.6504 48.3948 44.9174 48.3948 45.1227C48.403 45.3198 48.4071 45.4184 48.4071 45.4184L46.7685 45.48ZM46.7685 45.48L47.5447 44.3219L50.822 44.3711L50.8343 45.4554L46.7685 45.48ZM47.4954 42.6216V41.3033L50.785 41.3403L50.6371 42.5723L47.4954 42.6216ZM47.3968 38.0753L46.7315 36.8186L50.6741 36.9172L50.7973 38.0753H47.3968ZM52.252 36.7817L53.8784 36.6338C53.9112 36.7488 53.9687 36.9336 54.0509 37.1882C54.133 37.4347 54.2274 37.7221 54.3342 38.0507C54.441 38.371 54.5519 38.7119 54.6669 39.0733C54.7901 39.4265 54.9051 39.7632 55.0119 40.0836C55.1104 40.3793 55.2049 40.6626 55.2952 40.9337C55.3856 41.1965 55.4636 41.4306 55.5293 41.636C55.6032 41.8413 55.6607 42.0056 55.7018 42.1288C55.7018 41.907 55.6977 41.6606 55.6895 41.3896C55.6895 41.1103 55.6854 40.8146 55.6772 40.5025C55.6772 40.1904 55.6731 39.8741 55.6649 39.5538C55.6566 39.2827 55.6525 38.9994 55.6525 38.7037C55.6525 38.408 55.6484 38.1123 55.6402 37.8166C55.6402 37.5127 55.6361 37.2334 55.6279 36.9788C55.6279 36.7159 55.6238 36.4942 55.6156 36.3135L57.1556 36.412C57.1474 36.7159 57.1351 37.0897 57.1187 37.5332C57.1105 37.9768 57.1023 38.449 57.094 38.9501C57.094 39.4511 57.094 39.9481 57.094 40.4409C57.0858 40.868 57.0776 41.3033 57.0694 41.7469C57.0694 42.1904 57.0694 42.6298 57.0694 43.0652C57.0694 43.4923 57.0694 43.903 57.0694 44.2972C57.0694 44.6915 57.0653 45.0529 57.0571 45.3814L55.48 45.4677C55.4061 45.2377 55.3034 44.9379 55.172 44.5683C55.0488 44.1987 54.9133 43.8044 54.7654 43.3855C54.6176 42.9666 54.4739 42.5682 54.3342 42.1904C54.2767 42.0179 54.2192 41.8536 54.1617 41.6976C54.1042 41.5333 54.0467 41.3814 53.9893 41.2417C53.94 41.0939 53.8948 40.9624 53.8537 40.8475C53.8209 40.7325 53.788 40.6339 53.7552 40.5518C53.7552 40.8885 53.7552 41.2376 53.7552 41.599C53.7552 41.9522 53.7552 42.3013 53.7552 42.6463C53.7552 42.9255 53.7552 43.2048 53.7552 43.4841C53.7634 43.7551 53.7675 44.0221 53.7675 44.2849C53.7675 44.5477 53.7716 44.7942 53.7798 45.0241C53.788 45.2541 53.7921 45.4595 53.7921 45.6402L52.289 45.7634C52.2972 45.4677 52.3013 45.1145 52.3013 44.7038C52.3013 44.2931 52.3013 43.8619 52.3013 43.4101C52.3095 42.9502 52.3136 42.5148 52.3136 42.1042C52.3136 41.4635 52.3095 40.8187 52.3013 40.1698C52.3013 39.5209 52.2972 38.9049 52.289 38.3217C52.2808 37.7386 52.2685 37.2252 52.252 36.7817ZM32.2648 58.393C32.2648 58.2534 32.2689 58.0809 32.2771 57.8756C32.2854 57.6702 32.2895 57.4361 32.2895 57.1733C32.2895 56.9104 32.2895 56.623 32.2895 56.3108C32.2977 55.9905 32.3018 55.6455 32.3018 55.2759C32.31 54.9063 32.3141 54.5079 32.3141 54.0808C32.3141 53.5469 32.31 53.0336 32.3018 52.5407C32.2936 52.0397 32.2813 51.592 32.2648 51.1978C32.2566 50.8035 32.2484 50.4914 32.2402 50.2614C32.232 50.0232 32.2279 49.9041 32.2279 49.9041L33.9281 49.9534C33.9281 49.9534 33.9281 50.052 33.9281 50.2491C33.9281 50.438 33.924 50.6885 33.9158 51.0007C33.9158 51.3046 33.9117 51.6413 33.9035 52.0109C33.9035 52.3806 33.9035 52.7502 33.9035 53.1198C33.9035 53.4812 33.9035 53.8015 33.9035 54.0808C33.9035 54.3683 33.9035 54.7009 33.9035 55.0788C33.9035 55.4484 33.9035 55.8262 33.9035 56.2123C33.9117 56.5901 33.9158 56.9433 33.9158 57.2718C33.924 57.6004 33.9281 57.8673 33.9281 58.0727C33.9363 58.278 33.9404 58.3807 33.9404 58.3807L32.2648 58.393ZM30.5769 51.1731L30.6139 49.7809C30.6139 49.7809 30.696 49.7809 30.8603 49.7809C31.0246 49.7809 31.2299 49.7809 31.4763 49.7809C31.7227 49.7727 31.9732 49.7686 32.2279 49.7686C32.4907 49.7686 32.7166 49.7686 32.9055 49.7686C33.0616 49.7686 33.2546 49.7686 33.4846 49.7686C33.7146 49.7686 33.9527 49.7686 34.1992 49.7686C34.4456 49.7604 34.6756 49.7563 34.8891 49.7563C35.1109 49.7481 35.2875 49.744 35.4189 49.744C35.5585 49.744 35.6283 49.744 35.6283 49.744L35.6653 51.0746C35.6653 51.0746 35.5996 51.0746 35.4682 51.0746C35.345 51.0746 35.1807 51.0787 34.9754 51.0869C34.77 51.0869 34.5482 51.091 34.31 51.0992C34.0801 51.0992 33.8542 51.0992 33.6324 51.0992C33.4106 51.0992 33.2217 51.0992 33.0657 51.0992C32.9096 51.0992 32.7248 51.1033 32.5112 51.1115C32.2977 51.1198 32.08 51.128 31.8582 51.1362C31.6365 51.1362 31.427 51.1403 31.2299 51.1485C31.0328 51.1567 30.8767 51.1649 30.7617 51.1731C30.6385 51.1731 30.5769 51.1731 30.5769 51.1731ZM36.546 49.7809L38.2709 49.7563C38.2709 49.7563 38.2668 49.8261 38.2585 49.9657C38.2503 50.0971 38.2421 50.2861 38.2339 50.5325C38.2257 50.7707 38.2175 51.054 38.2093 51.3826C38.201 51.7111 38.1928 52.0725 38.1846 52.4668C38.1846 52.8529 38.1846 53.2594 38.1846 53.6865C38.1846 54.1054 38.1846 54.5367 38.1846 54.9802C38.1928 55.4238 38.1969 55.8509 38.1969 56.2616C38.1969 56.6722 38.1969 57.0419 38.1969 57.3704C38.2052 57.6907 38.2093 57.9454 38.2093 58.1343C38.2175 58.315 38.2216 58.4053 38.2216 58.4053L36.4967 58.4177C36.4967 58.4177 36.5008 58.3027 36.509 58.0727C36.5172 57.8345 36.5254 57.5306 36.5337 57.161C36.5419 56.7913 36.5501 56.3971 36.5583 55.9782C36.5665 55.5511 36.5747 55.1363 36.5829 54.7338C36.5912 54.3313 36.5953 53.9905 36.5953 53.7112C36.5953 53.4237 36.5912 53.1034 36.5829 52.7502C36.5829 52.3888 36.5788 52.0233 36.5706 51.6537C36.5706 51.2758 36.5665 50.9226 36.5583 50.5941C36.5501 50.2573 36.546 49.9863 36.546 49.7809ZM41.9361 58.4669C41.5583 58.4669 41.2379 58.4094 40.9751 58.2945C40.7123 58.1795 40.4987 58.0152 40.3344 57.8016C40.1702 57.5799 40.0387 57.317 39.9402 57.0131C39.8663 56.7585 39.8088 56.4751 39.7677 56.163C39.7348 55.8509 39.7102 55.5141 39.6938 55.1527C39.6855 54.7913 39.6814 54.4094 39.6814 54.0069C39.6814 53.7523 39.6814 53.5058 39.6814 53.2676C39.6897 53.0212 39.7061 52.7871 39.7307 52.5654C39.7554 52.3354 39.7841 52.1218 39.817 51.9247C39.858 51.7194 39.9073 51.5263 39.9648 51.3456C40.1209 50.8364 40.3673 50.438 40.7041 50.1505C41.049 49.8548 41.5295 49.707 42.1456 49.707C42.6877 49.707 43.1107 49.8097 43.4146 50.015C43.7185 50.2204 43.9362 50.5119 44.0676 50.8898C44.199 51.2594 44.2647 51.707 44.2647 52.2327C44.2647 52.4463 44.2565 52.6763 44.2401 52.9227C44.2236 53.1609 44.1949 53.4114 44.1538 53.6742H42.6014C42.6343 53.4114 42.6589 53.1568 42.6753 52.9103C42.6918 52.6639 42.7 52.4381 42.7 52.2327C42.7 51.9781 42.6836 51.7563 42.6507 51.5674C42.6179 51.3785 42.5562 51.2347 42.4659 51.1362C42.3838 51.0294 42.2647 50.976 42.1086 50.976C41.8622 50.976 41.6856 51.0746 41.5788 51.2717C41.472 51.4606 41.3981 51.7276 41.357 52.0725C41.3406 52.2615 41.3283 52.4709 41.3201 52.7009C41.3201 52.9309 41.3201 53.1773 41.3201 53.4401C41.3201 53.703 41.3201 53.9822 41.3201 54.2779C41.3201 54.549 41.316 54.8077 41.3078 55.0541C41.3078 55.2923 41.3119 55.51 41.3201 55.7071C41.3283 55.9043 41.3406 56.085 41.357 56.2492C41.3981 56.5614 41.472 56.7954 41.5788 56.9515C41.6856 57.1076 41.8581 57.1856 42.0963 57.1856C42.2606 57.1856 42.3879 57.1445 42.4782 57.0624C42.5686 56.9803 42.6302 56.8612 42.663 56.7051C42.7041 56.549 42.7246 56.356 42.7246 56.126C42.7246 56.0439 42.7205 55.9618 42.7123 55.8796C42.7123 55.7893 42.7082 55.6948 42.7 55.5962C42.7 55.4977 42.6918 55.3991 42.6753 55.3005L44.1785 55.2759C44.1949 55.4155 44.2031 55.5552 44.2031 55.6948C44.2113 55.8262 44.2154 55.9535 44.2154 56.0767C44.2154 56.6106 44.1415 57.0542 43.9937 57.4074C43.854 57.7606 43.6158 58.0275 43.2791 58.2082C42.9505 58.3807 42.5029 58.4669 41.9361 58.4669ZM48.8761 58.4053C48.6461 57.9947 48.4079 57.6004 48.1615 57.2226C47.9151 56.8365 47.6645 56.4628 47.4099 56.1014C47.1553 55.74 46.9007 55.3909 46.646 55.0541C46.8842 54.586 47.1142 54.1096 47.336 53.6249C47.566 53.1403 47.7836 52.6639 47.989 52.1958C48.2025 51.7194 48.3997 51.2758 48.5804 50.8651C48.7611 50.4544 48.9213 50.0889 49.0609 49.7686L50.7611 49.7316C50.6133 50.0027 50.449 50.3107 50.2683 50.6557C50.0958 50.9924 49.9151 51.3497 49.7262 51.7276C49.5373 52.0972 49.3484 52.4668 49.1594 52.8364C48.9787 53.1978 48.8063 53.5428 48.642 53.8714C48.4777 54.1999 48.334 54.4915 48.2108 54.7461C48.3915 55.0254 48.5763 55.3005 48.7652 55.5716C48.9541 55.8427 49.1512 56.126 49.3566 56.4217C49.5701 56.7092 49.796 57.0131 50.0342 57.3334C50.2806 57.6456 50.5476 57.9823 50.835 58.3437L48.8761 58.4053ZM45.685 58.393C45.6933 58.2041 45.6974 57.9823 45.6974 57.7277C45.7056 57.4731 45.7097 57.1979 45.7097 56.9022C45.7179 56.6065 45.722 56.2985 45.722 55.9782C45.7302 55.6578 45.7343 55.3375 45.7343 55.0172C45.7343 54.6886 45.7343 54.3683 45.7343 54.0562C45.7343 53.6537 45.7302 53.2389 45.722 52.8118C45.7138 52.3847 45.7056 51.974 45.6974 51.5797C45.6974 51.1773 45.6933 50.8158 45.685 50.4955C45.6768 50.1752 45.6686 49.9247 45.6604 49.744L47.373 49.8056C47.373 49.9534 47.3689 50.1587 47.3606 50.4216C47.3606 50.6762 47.3606 50.9637 47.3606 51.284C47.3606 51.5962 47.3565 51.9206 47.3483 52.2574C47.3401 52.5941 47.3319 52.9186 47.3237 53.2307C47.3237 53.5428 47.3237 53.8221 47.3237 54.0685C47.3237 54.2738 47.3237 54.5285 47.3237 54.8324C47.3319 55.1363 47.336 55.4648 47.336 55.818C47.3442 56.163 47.3483 56.5039 47.3483 56.8406C47.3565 57.1692 47.3606 57.4731 47.3606 57.7523C47.3689 58.0234 47.373 58.237 47.373 58.393H45.685ZM51.5181 58.4423C51.5181 58.4423 51.5181 58.3602 51.5181 58.1959C51.5263 58.0316 51.5304 57.8057 51.5304 57.5183C51.5386 57.2226 51.5427 56.8899 51.5427 56.5203C51.5509 56.1507 51.555 55.7564 51.555 55.3375C51.5632 54.9186 51.5674 54.4997 51.5674 54.0808C51.5674 53.5551 51.5632 53.0377 51.555 52.5284C51.5468 52.0109 51.5345 51.5469 51.5181 51.1362C51.5099 50.7255 51.5016 50.3969 51.4934 50.1505C51.4852 49.9041 51.4811 49.7809 51.4811 49.7809L53.1444 49.9411C53.1444 49.9411 53.1403 50.0397 53.1321 50.2368C53.1321 50.4257 53.1321 50.6762 53.1321 50.9883C53.1321 51.3005 53.128 51.6454 53.1197 52.0233C53.1197 52.3929 53.1156 52.7584 53.1074 53.1198C53.1074 53.4812 53.1074 53.8056 53.1074 54.0931C53.1074 54.3806 53.1074 54.7133 53.1074 55.0911C53.1156 55.4607 53.1197 55.8385 53.1197 56.2246C53.128 56.6024 53.1321 56.9556 53.1321 57.2842C53.1403 57.6127 53.1444 57.8797 53.1444 58.085C53.1526 58.2821 53.1567 58.3807 53.1567 58.3807L51.5181 58.4423ZM51.5181 58.4423L52.2943 57.2842L55.5715 57.3334L55.5839 58.4177L51.5181 58.4423ZM52.245 55.5839V54.2656L55.5346 54.3026L55.3867 55.5346L52.245 55.5839ZM52.1464 51.0376L51.4811 49.7809L55.4237 49.8795L55.5469 51.0376H52.1464ZM57.9505 58.393C57.9505 58.2534 57.9546 58.0809 57.9628 57.8756C57.971 57.6702 57.9751 57.4361 57.9751 57.1733C57.9751 56.9104 57.9751 56.623 57.9751 56.3108C57.9833 55.9905 57.9874 55.6455 57.9874 55.2759C57.9956 54.9063 57.9997 54.5079 57.9997 54.0808C57.9997 53.6537 57.9956 53.2389 57.9874 52.8364C57.9874 52.4257 57.9792 52.0438 57.9628 51.6906C57.9546 51.3374 57.9463 51.0294 57.9381 50.7666C57.9299 50.4955 57.9217 50.2861 57.9135 50.1382C57.9135 49.9822 57.9135 49.9041 57.9135 49.9041L59.6137 49.9534C59.6137 49.9534 59.6137 50.052 59.6137 50.2491C59.6137 50.438 59.6096 50.6885 59.6014 51.0007C59.6014 51.3046 59.5973 51.6413 59.5891 52.0109C59.5891 52.3806 59.5891 52.7502 59.5891 53.1198C59.5891 53.4812 59.5891 53.8015 59.5891 54.0808C59.5891 54.3683 59.5891 54.705 59.5891 55.0911C59.5891 55.4689 59.5891 55.8591 59.5891 56.2616C59.5973 56.6558 59.6055 57.0254 59.6137 57.3704C59.6219 57.7154 59.6261 57.9946 59.6261 58.2082C59.6261 58.4135 59.6261 58.5162 59.6261 58.5162L57.9505 58.393ZM56.1763 51.1731L56.2995 49.7809C56.2995 49.7809 56.3816 49.7809 56.5459 49.7809C56.7102 49.7809 56.9155 49.7809 57.1619 49.7809C57.4083 49.7727 57.6589 49.7686 57.9135 49.7686C58.1763 49.7686 58.4022 49.7686 58.5911 49.7686C58.7472 49.7686 58.9361 49.7686 59.1579 49.7686C59.3879 49.7686 59.6261 49.7686 59.8725 49.7686C60.1189 49.7604 60.3489 49.7563 60.5624 49.7563C60.776 49.7481 60.9485 49.744 61.0799 49.744C61.2195 49.744 61.2893 49.744 61.2893 49.744L61.4125 51.0746C61.4125 51.0746 61.3468 51.0746 61.2154 51.0746C61.084 51.0746 60.9115 51.0787 60.6979 51.0869C60.4926 51.0869 60.2667 51.091 60.0203 51.0992C59.7821 51.0992 59.548 51.0992 59.318 51.0992C59.0963 51.0992 58.9074 51.0992 58.7513 51.0992C58.5952 51.0992 58.4063 51.1033 58.1845 51.1115C57.971 51.1198 57.7451 51.128 57.5069 51.1362C57.2769 51.1362 57.0593 51.1403 56.8539 51.1485C56.6568 51.1567 56.4966 51.1649 56.3734 51.1731C56.242 51.1731 56.1763 51.1731 56.1763 51.1731Z" fill="#D70000"/>
</svg>
