<svg width="92" height="92" viewBox="0 0 92 92" fill="none" xmlns="http://www.w3.org/2000/svg">
<circle cx="46" cy="46" r="46" fill="#2CA6DF"/>
<path d="M8 45.3525L11.7816 51.2366C11.7816 51.2366 18.1746 47.8908 21.9022 53.8096C25.6298 59.7284 19.9692 63.9765 19.9692 63.9765L23.6121 69.6447L78.6204 34.2921L74.9776 28.6239C74.9776 28.6239 68.5306 32.0044 64.8184 26.2283C61.1062 20.4522 66.7899 15.884 66.7899 15.884L63.0083 9.9999L8 45.3525Z" fill="white"/>
<path d="M20.4775 40.0804L19.1819 40.9131L21.6104 44.6919L22.906 43.8592L20.4775 40.0804Z" fill="#2CA6DF"/>
<path d="M24.0158 45.5863L22.7202 46.4189L25.1488 50.1977L26.4443 49.3651L24.0158 45.5863Z" fill="#2CA6DF"/>
<path d="M27.5551 51.0931L26.2595 51.9258L28.6881 55.7046L29.9836 54.8719L27.5551 51.0931Z" fill="#2CA6DF"/>
<path d="M31.0937 56.599L29.7981 57.4316L32.2266 61.2104L33.5222 60.3778L31.0937 56.599Z" fill="#2CA6DF"/>
<path d="M54.3786 18.2933L53.083 19.126L55.5116 22.9048L56.8071 22.0721L54.3786 18.2933Z" fill="#2CA6DF"/>
<path d="M57.9169 23.7982L56.6213 24.6309L59.0499 28.4096L60.3455 27.577L57.9169 23.7982Z" fill="#2CA6DF"/>
<path d="M61.4562 29.306L60.1606 30.1387L62.5892 33.9175L63.8848 33.0848L61.4562 29.306Z" fill="#2CA6DF"/>
<path d="M64.9946 34.8119L63.699 35.6445L66.1275 39.4233L67.4231 38.5907L64.9946 34.8119Z" fill="#2CA6DF"/>
<path d="M14 43V49.9945C14 49.9945 21.187 50.6362 21.1228 57.6307C21.0587 64.6252 14 65.1386 14 65.1386V71.8764H79.389V65.1386C79.389 65.1386 72.1378 64.4969 72.1378 57.6307C72.1378 50.7645 79.389 49.9945 79.389 49.9945V43H14Z" fill="white"/>
<path d="M25.6933 45.3105H24V49.8024H25.6933V45.3105Z" fill="#2CA6DF"/>
<path d="M25.6933 51.8555H24V56.3474H25.6933V51.8555Z" fill="#2CA6DF"/>
<path d="M25.6933 58.4014H24V62.8933H25.6933V58.4014Z" fill="#2CA6DF"/>
<path d="M25.6933 64.9463H24V69.4382H25.6933V64.9463Z" fill="#2CA6DF"/>
<path d="M70.0001 45.3105H68.3069V49.8024H70.0001V45.3105Z" fill="#2CA6DF"/>
<path d="M70.0001 51.8555H68.3069V56.3474H70.0001V51.8555Z" fill="#2CA6DF"/>
<path d="M70.0001 58.4014H68.3069V62.8933H70.0001V58.4014Z" fill="#2CA6DF"/>
<path d="M70.0001 64.9463H68.3069V69.4382H70.0001V64.9463Z" fill="#2CA6DF"/>
<path d="M29.9125 49.1738H32.602C33.0199 49.1738 33.3949 49.2188 33.727 49.3086C34.059 49.3984 34.3402 49.5312 34.5707 49.707C34.8051 49.8789 34.9828 50.0938 35.1039 50.3516C35.2289 50.6055 35.2914 50.9004 35.2914 51.2363C35.2914 51.6074 35.225 51.9258 35.0922 52.1914C34.9594 52.4531 34.7719 52.6699 34.5297 52.8418C34.2875 53.0137 34.0023 53.1523 33.6742 53.2578L33.223 53.5039H30.85L30.8383 52.3789H32.6195C32.9008 52.3789 33.1332 52.3359 33.3168 52.25C33.5004 52.1641 33.6391 52.0449 33.7328 51.8926C33.8266 51.7363 33.8734 51.5566 33.8734 51.3535C33.8734 51.1387 33.8266 50.9531 33.7328 50.7969C33.643 50.6367 33.5023 50.5137 33.3109 50.4277C33.1234 50.3418 32.8871 50.2988 32.602 50.2988H31.3305V56H29.9125V49.1738ZM34.0492 56L32.3617 52.9766L33.8559 52.9648L35.5727 55.9355V56H34.0492ZM40.9293 54.8809V56H37.0211V54.8809H40.9293ZM37.4664 49.1738V56H36.0543V49.1738H37.4664ZM40.4254 51.9102V53.0293H37.0211V51.9102H40.4254ZM40.9176 49.1738V50.2988H37.0211V49.1738H40.9176ZM47.3699 52.4258V52.7539C47.3699 53.2734 47.2957 53.7383 47.1473 54.1484C46.9988 54.5586 46.7879 54.9102 46.5145 55.2031C46.2449 55.4922 45.9207 55.7129 45.5418 55.8652C45.1629 56.0176 44.7449 56.0938 44.2879 56.0938C43.8309 56.0938 43.4129 56.0176 43.034 55.8652C42.6551 55.7129 42.327 55.4922 42.0496 55.2031C41.7723 54.9102 41.5574 54.5586 41.4051 54.1484C41.2566 53.7383 41.1824 53.2734 41.1824 52.7539V52.4258C41.1824 51.9062 41.2566 51.4414 41.4051 51.0312C41.5574 50.6211 41.7703 50.2695 42.0438 49.9766C42.3172 49.6836 42.6434 49.4609 43.0223 49.3086C43.4012 49.1562 43.8191 49.0801 44.2762 49.0801C44.7371 49.0801 45.1551 49.1562 45.5301 49.3086C45.909 49.4609 46.2352 49.6836 46.5086 49.9766C46.7859 50.2695 46.9988 50.6211 47.1473 51.0312C47.2957 51.4414 47.3699 51.9062 47.3699 52.4258ZM45.9578 52.7539V52.4141C45.9578 52.0586 45.9207 51.7441 45.8465 51.4707C45.7723 51.1973 45.6609 50.9668 45.5125 50.7793C45.368 50.5918 45.1922 50.4492 44.9852 50.3516C44.7781 50.2539 44.5418 50.2051 44.2762 50.2051C44.0145 50.2051 43.7781 50.2539 43.5672 50.3516C43.3602 50.4492 43.1844 50.5918 43.0398 50.7793C42.8992 50.9668 42.7898 51.1973 42.7117 51.4707C42.6375 51.7441 42.6004 52.0586 42.6004 52.4141V52.7539C42.6004 53.1055 42.6375 53.4199 42.7117 53.6973C42.7898 53.9707 42.9012 54.2031 43.0457 54.3945C43.1941 54.582 43.3719 54.7266 43.5789 54.8281C43.7898 54.9258 44.0262 54.9746 44.2879 54.9746C44.5535 54.9746 44.7879 54.9258 44.991 54.8281C45.198 54.7266 45.3738 54.582 45.5184 54.3945C45.6629 54.2031 45.7723 53.9707 45.8465 53.6973C45.9207 53.4199 45.9578 53.1055 45.9578 52.7539ZM50.9043 53.5918H49.0176V52.4668H50.9043C51.209 52.4668 51.457 52.4219 51.6484 52.332C51.8438 52.2422 51.9863 52.1211 52.0762 51.9688C52.1699 51.8125 52.2168 51.6367 52.2168 51.4414C52.2168 51.2383 52.1699 51.0508 52.0762 50.8789C51.9863 50.707 51.8438 50.5684 51.6484 50.4629C51.457 50.3535 51.209 50.2988 50.9043 50.2988H49.4922V56H48.0801V49.1738H50.9043C51.4785 49.1738 51.9688 49.2715 52.375 49.4668C52.7812 49.6621 53.0898 49.9297 53.3008 50.2695C53.5156 50.6055 53.623 50.9922 53.623 51.4297C53.623 51.7578 53.5625 52.0547 53.4414 52.3203C53.3203 52.5859 53.1426 52.8145 52.9082 53.0059C52.6738 53.1934 52.3887 53.3379 52.0527 53.4395C51.7168 53.541 51.334 53.5918 50.9043 53.5918ZM59.1379 54.8809V56H55.2297V54.8809H59.1379ZM55.675 49.1738V56H54.2629V49.1738H55.675ZM58.634 51.9102V53.0293H55.2297V51.9102H58.634ZM59.1262 49.1738V50.2988H55.2297V49.1738H59.1262ZM65.5375 49.1738V56H64.1195L61.0375 51.2949V56H59.6254V49.1738H61.0375L64.1195 53.8789V49.1738H65.5375ZM35.0723 60.1738V67H33.6602V60.1738H35.0723ZM37.3457 60.1738V61.2988H31.416V60.1738H37.3457ZM39.3273 60.1738V67H37.9094V60.1738H39.3273ZM44.6313 64.7266H46.0492C46.0141 65.1914 45.8773 65.6016 45.6391 65.957C45.4047 66.3125 45.0766 66.5918 44.6547 66.7949C44.2328 66.9941 43.723 67.0938 43.1254 67.0938C42.6605 67.0938 42.2426 67.0176 41.8715 66.8652C41.5043 66.7129 41.1898 66.4961 40.9281 66.2148C40.6703 65.9297 40.4711 65.5859 40.3305 65.1836C40.1938 64.7773 40.1254 64.3223 40.1254 63.8184V63.3613C40.1254 62.8574 40.1957 62.4043 40.3363 62.002C40.477 61.5957 40.6801 61.25 40.9457 60.9648C41.2113 60.6758 41.5277 60.457 41.8949 60.3086C42.266 60.1562 42.682 60.0801 43.143 60.0801C43.7484 60.0801 44.2582 60.1836 44.6723 60.3906C45.0863 60.5938 45.4086 60.877 45.6391 61.2402C45.8695 61.6035 46.0082 62.0195 46.0551 62.4883H44.643C44.6195 62.2344 44.5551 62.0117 44.4496 61.8203C44.3441 61.625 44.1859 61.4727 43.975 61.3633C43.7641 61.2539 43.4867 61.1992 43.143 61.1992C42.8773 61.1992 42.6449 61.2461 42.4457 61.3398C42.2465 61.4297 42.0785 61.5664 41.9418 61.75C41.809 61.9336 41.7074 62.1602 41.6371 62.4297C41.5707 62.6953 41.5375 63.0039 41.5375 63.3555V63.8184C41.5375 64.1621 41.5668 64.4688 41.6254 64.7383C41.6879 65.0039 41.7836 65.2285 41.9125 65.4121C42.0414 65.5957 42.2055 65.7363 42.4047 65.834C42.6078 65.9277 42.848 65.9746 43.1254 65.9746C43.4574 65.9746 43.7289 65.9297 43.9398 65.8398C44.1508 65.7461 44.3129 65.6055 44.4262 65.418C44.5395 65.2305 44.6078 65 44.6313 64.7266ZM48.066 60.1738V67H46.6539V60.1738H48.066ZM52.443 60.1738L49.5367 63.5605L47.8961 65.1602L47.568 63.8359L48.7281 62.418L50.6852 60.1738H52.443ZM50.8785 67L48.6227 63.8535L49.6539 62.9805L52.566 67H50.8785ZM57.6297 65.8809V67H53.7215V65.8809H57.6297ZM54.1668 60.1738V67H52.7547V60.1738H54.1668ZM57.1258 62.9102V64.0293H53.7215V62.9102H57.1258ZM57.618 60.1738V61.2988H53.7215V60.1738H57.618ZM61.2988 60.1738V67H59.8867V60.1738H61.2988ZM63.5723 60.1738V61.2988H57.6426V60.1738H63.5723Z" fill="#2CA6DF"/>
</svg>
