<svg width="92" height="92" viewBox="0 0 92 92" fill="none" xmlns="http://www.w3.org/2000/svg">
<circle cx="46" cy="46" r="46" fill="#73B73D"/>
<path d="M46.1112 67.7392C43.1215 67.5976 43.4331 67.8507 42.5567 65.3519C42.0638 63.9505 41.4009 63.0383 39.8691 62.7474C38.9361 62.5699 38.0768 62.0543 37.2495 61.5538C36.9322 61.363 36.6754 61.3611 36.3373 61.5141C35.3986 61.9428 34.4335 62.3168 33.4854 62.7285C32.8772 62.9929 32.3559 62.9004 31.863 62.4566C31.0565 61.7313 30.2935 60.9664 29.5701 60.1599C29.1244 59.6632 29.0507 59.14 29.317 58.5338C29.7231 57.6083 30.0895 56.6658 30.5088 55.7479C30.6693 55.3948 30.6826 55.119 30.4786 54.7734C29.7325 53.5136 29.1886 52.1613 28.8128 50.7486C28.7202 50.403 28.5502 50.2367 28.2424 50.1197C27.2772 49.7495 26.3235 49.3566 25.3583 48.9864C24.7143 48.7371 24.4159 48.2876 24.3743 47.5926C24.3101 46.533 24.3101 45.4773 24.3743 44.4177C24.4178 43.7208 24.7313 43.2826 25.3753 43.0371C26.3178 42.6763 27.2489 42.2835 28.1914 41.9265C28.5238 41.8 28.7183 41.6375 28.8165 41.2617C29.1886 39.849 29.742 38.4985 30.4842 37.2369C30.6731 36.9158 30.675 36.659 30.5258 36.3284C30.1103 35.4087 29.7401 34.4681 29.3321 33.5445C29.0413 32.8873 29.1357 32.3358 29.6287 31.8013C30.3313 31.0382 31.0603 30.3073 31.8252 29.6047C32.3635 29.1118 32.9188 29.0381 33.5722 29.3309C34.4505 29.7237 35.3495 30.075 36.224 30.4754C36.6187 30.6567 36.9341 30.6699 37.3288 30.4338C38.5244 29.7218 39.8087 29.1911 41.1572 28.8436C41.6105 28.7265 41.8088 28.4904 41.958 28.0862C42.2999 27.1608 42.6889 26.2542 43.0497 25.3363C43.2895 24.7243 43.7088 24.4127 44.3812 24.373C45.4162 24.3107 46.4474 24.3107 47.4843 24.3579C48.3097 24.3938 48.7819 24.7565 49.0557 25.5119C49.3825 26.4166 49.7715 27.2986 50.1134 28.1995C50.2399 28.5338 50.4118 28.717 50.7858 28.8152C52.1758 29.1835 53.5074 29.718 54.7444 30.4546C55.1127 30.6737 55.4149 30.6548 55.787 30.4848C56.6841 30.075 57.6039 29.7161 58.5048 29.3157C59.1356 29.0343 59.672 29.1231 60.1895 29.5877C60.9979 30.3111 61.7609 31.076 62.4805 31.8863C62.9036 32.3622 62.9791 32.8759 62.7336 33.4539C62.3275 34.4039 61.946 35.3671 61.5154 36.3039C61.3492 36.6665 61.3718 36.9423 61.5683 37.2785C62.2992 38.5193 62.8356 39.849 63.2077 41.239C63.3059 41.6092 63.4834 41.7849 63.8215 41.9133C64.7658 42.2703 65.6951 42.6688 66.6375 43.0276C67.3118 43.2845 67.6196 43.7434 67.6612 44.4687C67.7216 45.5056 67.7197 46.5368 67.6612 47.5718C67.6196 48.3008 67.3023 48.7522 66.63 49.0072C65.6856 49.3661 64.7564 49.7589 63.8139 50.1234C63.5155 50.2386 63.3191 50.3727 63.2247 50.7316C62.8469 52.1689 62.2841 53.5382 61.5343 54.8225C61.3586 55.1209 61.353 55.3608 61.4927 55.6686C61.9082 56.5903 62.2784 57.529 62.6902 58.4525C62.9942 59.1344 62.896 59.7066 62.3804 60.2581C61.6892 60.9985 60.9752 61.7124 60.233 62.4018C59.6758 62.9193 59.0998 62.9892 58.4236 62.6851C57.5246 62.2809 56.6029 61.9221 55.7096 61.5084C55.3734 61.3517 55.1146 61.3649 54.7973 61.5519C53.5338 62.2922 52.1853 62.8437 50.7725 63.2177C50.4288 63.3084 50.255 63.4727 50.136 63.7805C49.764 64.7438 49.3673 65.6994 48.9972 66.6646C48.7497 67.3105 48.3116 67.6429 47.6109 67.6523C47.0707 67.6599 46.5305 67.7128 46.115 67.7373L46.1112 67.7392ZM53.2297 40.0095C53.2429 39.2975 52.6877 38.7705 51.9718 38.7951C51.4657 38.8121 51.1748 39.135 50.8896 39.492C48.3947 42.614 45.8997 45.736 43.401 48.8542C43.0497 49.2924 42.7135 50.0195 42.3074 50.0668C41.8164 50.1234 41.4802 49.3547 41.0401 48.9845C41.0231 48.9694 41.0061 48.9506 40.9891 48.9354C40.3356 48.316 39.65 48.2763 39.1307 48.8259C38.6396 49.3434 38.6887 50.029 39.2818 50.6353C39.973 51.3416 40.6718 52.0386 41.3763 52.7317C42.128 53.4702 42.8098 53.4475 43.469 52.6259C46.6042 48.722 49.73 44.8087 52.8576 40.8991C53.0654 40.6403 53.2505 40.3665 53.2297 40.0114V40.0095Z" fill="white"/>
<path d="M11.0405 43.0206C12.6591 29.9849 19.143 20.3186 30.9964 14.4051C31.6744 14.067 31.801 13.8271 31.3741 13.219C30.9945 12.6769 30.936 12.0706 31.4006 11.5248C31.8652 10.9771 32.4507 10.9998 33.0777 11.2056C34.4395 11.6514 35.8088 12.0744 37.1705 12.5164C38.2603 12.8715 38.5663 13.4569 38.2433 14.5694C37.8353 15.967 37.4066 17.359 37.0043 18.7585C36.823 19.3893 36.4604 19.8029 35.7937 19.8615C35.1496 19.92 34.668 19.5876 34.4659 19.0154C34.2072 18.2825 33.8313 18.3656 33.2742 18.6433C23.791 23.348 18.0551 30.8763 16.1834 41.3132C16.0588 42.0064 15.9719 42.709 15.919 43.4115C15.7943 45.0547 14.7348 46.1199 13.2824 46.0085C11.9886 45.9084 10.7912 44.7412 11.0424 43.0225L11.0405 43.0206Z" fill="white"/>
<path d="M80.9862 48.9994C79.3468 62.0842 72.8498 71.7864 60.9114 77.681C60.3655 77.9511 60.222 78.1607 60.5827 78.6801C60.9831 79.2581 61.1399 79.8927 60.6299 80.5008C60.12 81.109 59.4816 81.007 58.8187 80.7879C57.5023 80.3535 56.1783 79.9455 54.86 79.5149C53.7664 79.158 53.4605 78.5743 53.7834 77.4638C54.1838 76.0888 54.6088 74.7195 54.9979 73.3408C55.1811 72.6911 55.521 72.2284 56.2274 72.166C56.9054 72.1056 57.3663 72.4739 57.5929 73.0688C57.8309 73.6902 58.1388 73.6864 58.6789 73.4201C68.23 68.7135 73.983 61.1493 75.8509 50.6539C75.9699 49.9834 76.0567 49.3053 76.1077 48.6254C76.2343 46.9728 77.2806 45.9208 78.733 46.019C79.9399 46.1021 81.2318 47.19 80.9843 48.9975L80.9862 48.9994Z" fill="white"/>
<path d="M42.986 80.9854C29.954 79.3497 20.2896 72.864 14.3893 61.003C14.0626 60.3477 13.8246 60.2457 13.2486 60.6404C12.7046 61.0125 12.104 61.1031 11.5469 60.6517C10.9614 60.1777 10.9954 59.5714 11.2107 58.9179C11.6602 57.5581 12.0757 56.1869 12.5195 54.8251C12.8614 53.7788 13.4582 53.4709 14.5291 53.7807C15.906 54.1773 17.2771 54.589 18.654 54.9838C19.2905 55.167 19.7797 55.4937 19.8533 56.202C19.927 56.9121 19.5379 57.3843 18.9165 57.6166C18.3027 57.847 18.3443 58.1549 18.5917 58.6592C23.2851 68.2178 30.8493 73.9708 41.3371 75.8538C41.985 75.969 42.6385 76.0597 43.2938 76.1088C45.0276 76.2391 46.0891 77.2457 46.0022 78.7114C45.9134 80.1997 44.7557 81.0647 42.9784 80.9872L42.986 80.9854Z" fill="white"/>
<path d="M49.0313 11.0434C62.0651 12.6734 71.7295 19.1572 77.6355 31.0201C77.9528 31.6566 78.1794 31.8096 78.7706 31.3978C79.3372 31.0031 79.9567 30.9219 80.5233 31.4186C81.0634 31.8927 81.02 32.4801 80.816 33.1033C80.3684 34.4651 79.951 35.8362 79.5072 37.198C79.1653 38.25 78.5685 38.5635 77.5014 38.2538C76.1037 37.8477 74.7137 37.4114 73.3123 37.0167C72.6833 36.8391 72.2489 36.503 72.1696 35.8381C72.0903 35.1639 72.4359 34.6747 73.0365 34.4556C73.7108 34.2082 73.69 33.8871 73.4086 33.3167C68.7001 23.8015 61.1604 18.0505 50.6914 16.1807C50.0209 16.0617 49.3429 15.9729 48.663 15.9219C46.9669 15.7954 45.8942 14.7358 46.0226 13.2589C46.1303 12.001 47.2691 10.7866 49.0313 11.0434V11.0434Z" fill="white"/>
<path d="M53.2284 40.0082C53.2492 40.3652 53.0641 40.6372 52.8564 40.8978C49.7287 44.8074 46.6029 48.7207 43.4677 52.6247C42.8085 53.4443 42.1286 53.4689 41.375 52.7304C40.6706 52.0392 39.9717 51.3404 39.2805 50.634C38.6874 50.0277 38.6383 49.344 39.1294 48.8246C39.6488 48.275 40.3344 48.3166 40.9879 48.9342C41.0049 48.9512 41.02 48.9682 41.0388 48.9833C41.4789 49.3553 41.8151 50.124 42.3062 50.0655C42.7122 50.0183 43.0484 49.2911 43.3997 48.8529C45.8984 45.7347 48.3953 42.6127 50.8884 39.4907C51.1735 39.1338 51.4644 38.8108 51.9706 38.7938C52.6864 38.7692 53.2417 39.2962 53.2266 40.0063L53.2284 40.0082Z" fill="#73B73D"/>
</svg>
