<svg width="92" height="92" viewBox="0 0 92 92" fill="none" xmlns="http://www.w3.org/2000/svg">
<circle cx="46" cy="46" r="46" fill="#026197"/>
<path d="M84.6225 45.3861C84.0172 46.1757 83.1486 45.9975 82.3327 45.9996C80.8588 46.0056 80.8993 46.0036 80.8264 47.435C80.4458 54.9848 77.9838 61.7712 73.2827 67.7135C69.5919 72.3761 65.0081 75.8929 59.5377 78.2171C56.0614 79.6951 52.4353 80.5758 48.6513 80.8754C42.0714 81.3998 35.8639 80.1405 29.9804 77.2089C27.2108 75.8281 24.6962 74.0586 22.3942 71.9935C21.3475 71.0541 21.3394 70.4568 22.3173 69.4688C22.7445 69.0376 23.1636 68.6003 23.6049 68.1852C24.3419 67.4928 24.9007 67.4523 25.6619 68.1184C28.4174 70.5337 31.4402 72.5118 34.8678 73.8379C37.9189 75.0182 41.0672 75.7329 44.3531 75.8645C53.5954 76.235 61.4084 73.0321 67.7454 66.357C71.9161 61.9656 74.4266 56.6915 75.4005 50.6946C75.6232 49.3199 75.6333 47.9351 75.7993 46.5604C75.8519 46.1291 75.6859 45.9753 75.2527 45.9955C74.623 46.0239 73.9913 46.0077 73.3596 46.0016C72.1408 45.9894 71.663 45.1877 72.2947 44.145C73.3536 42.3978 74.4529 40.6748 75.5361 38.9418C76.1111 38.0226 76.6739 37.0953 77.2651 36.1843C77.8907 35.2226 78.7411 35.2145 79.3545 36.1843C81.0147 38.8061 82.6546 41.4401 84.3047 44.0681C84.3958 44.2139 84.5173 44.3414 84.6225 44.4771V45.3861Z" fill="white"/>
<path d="M65.0485 46.2708C65.1942 56.9648 56.1766 65.948 45.3571 65.8548C34.8676 65.7657 25.929 57.2462 25.9493 46.1979C25.9695 35.4412 34.736 26.7172 45.5515 26.7354C56.4823 26.7536 65.1477 35.6619 65.0485 46.2708Z" fill="white"/>
<path d="M9.29903 45.9939C10.8296 45.9939 10.781 45.9919 10.8641 44.4592C11.267 36.9419 13.7248 30.1817 18.4138 24.2638C21.6593 20.166 25.6214 16.9347 30.3104 14.6266C34.3495 12.6385 38.6133 11.4642 43.1221 11.118C49.5381 10.624 55.6099 11.8084 61.3739 14.6206C64.2246 16.0115 66.808 17.8093 69.1828 19.9048C70.3349 20.9211 70.345 21.5184 69.274 22.5955C68.865 23.0065 68.4661 23.4317 68.0389 23.8224C67.3243 24.4784 66.7715 24.5108 66.0407 23.871C63.439 21.5953 60.6046 19.6963 57.4017 18.3701C54.2797 17.0764 51.0424 16.3354 47.6633 16.1188C44.0494 15.888 40.5225 16.3131 37.0746 17.3639C33.0659 18.5848 29.4742 20.583 26.3017 23.3264C22.1796 26.8897 19.248 31.2547 17.4764 36.3993C16.6382 38.8389 16.1301 41.3515 15.9883 43.9308C15.9802 44.0826 15.9802 44.2345 15.9721 44.3843C15.9222 45.456 16.427 45.9919 17.4865 45.9919C17.7902 45.9919 18.0919 45.9858 18.3956 45.9919C19.5152 46.0161 19.9849 46.8078 19.4079 47.7836C18.6649 49.0429 17.8672 50.2698 17.0917 51.5109C16.2232 52.9018 15.3627 54.2968 14.48 55.6776C13.7673 56.7931 12.9696 56.7972 12.2691 55.6897C10.611 53.0679 8.96497 50.4379 7.32504 47.8059C6.746 46.8766 7.22381 46.0161 8.3171 45.9919C8.64509 45.9838 8.97307 45.9919 9.30106 45.9919L9.29903 45.9939Z" fill="white"/>
<g clip-path="url(#clip0_915_1366)">
<path d="M35.026 53.513H31.4531L36.8971 37.7432H41.1938L46.6301 53.513H43.0572L39.107 41.3468H38.9838L35.026 53.513ZM34.8027 47.3144H43.242V49.917H34.8027V47.3144ZM51.7468 37.7432V53.513H48.4665V37.7432H51.7468ZM57.6547 37.7432V53.513H54.3744V37.7432H57.6547Z" fill="#026197"/>
</g>
<defs>
<clipPath id="clip0_915_1366">
<rect width="27.5214" height="15.8456" fill="white" transform="translate(31.4531 37.624)"/>
</clipPath>
</defs>
</svg>
